<?xml version="1.0" encoding="UTF-8"?>
<svg id="Layer_2" data-name="Layer 2" xmlns="http://www.w3.org/2000/svg" viewBox="0 0 1398.88 97.79">
  <defs>
    <style>
      .cls-1 {
        fill: #fff200;
      }

      .cls-2 {
        fill: #231f20;
      }
    </style>
  </defs>
  <g id="object">
    <g>
      <polygon class="cls-1" points="365.96 0 286.47 97.79 1032.1 97.79 1111.59 0 365.96 0"/>
      <polygon class="cls-1" points="262.3 0 182.81 97.79 248.6 97.79 328.1 0 262.3 0"/>
      <polygon class="cls-1" points="139.12 0 59.63 97.79 118.11 97.79 197.61 0 139.12 0"/>
      <polygon class="cls-1" points="0 0 0 91.55 74.43 0 0 0"/>
      <polygon class="cls-1" points="1149.46 0 1069.96 97.79 1130.57 97.79 1210.06 0 1149.46 0"/>
      <polygon class="cls-1" points="1318.45 97.79 1398.88 97.79 1398.88 0 1397.94 0 1318.45 97.79"/>
      <polygon class="cls-1" points="1274.76 0 1195.27 97.79 1253.75 97.79 1333.25 0 1274.76 0"/>
      <polygon points="74.43 0 0 91.55 0 97.79 59.63 97.79 139.12 0 74.43 0"/>
      <polygon points="197.61 0 118.11 97.79 182.81 97.79 262.3 0 197.61 0"/>
      <polygon points="328.1 0 248.6 97.79 286.47 97.79 365.96 0 328.1 0"/>
      <polygon points="1210.06 0 1130.57 97.79 1195.27 97.79 1274.76 0 1210.06 0"/>
      <polygon points="1333.25 0 1253.75 97.79 1318.45 97.79 1397.94 0 1333.25 0"/>
      <polygon points="1111.59 0 1032.1 97.79 1069.96 97.79 1149.46 0 1111.59 0"/>
      <g>
        <path class="cls-2" d="m364.95,25.99c3.64-.61,8.31-.95,13.23-.95,8.51,0,14.38,1.75,18.56,5.27,4.39,3.58,7.09,8.98,7.09,16.74s-2.77,14.18-7.09,18.09c-4.52,4.12-11.74,6.21-20.59,6.21-4.86,0-8.51-.27-11.21-.61V25.99Zm8.31,38.55c1.14.2,2.9.2,4.59.2,10.8.07,17.21-5.87,17.21-17.41.07-10.06-5.73-15.8-16.13-15.8-2.63,0-4.52.2-5.67.47v32.54Z"/>
        <path class="cls-2" d="m419.18,57.99l-3.91,12.9h-8.57l14.58-45.5h10.6l14.78,45.5h-8.91l-4.12-12.9h-14.45Zm13.03-6.28l-3.58-11.21c-.87-2.76-1.62-5.87-2.29-8.5h-.14c-.68,2.63-1.35,5.8-2.16,8.5l-3.51,11.21h11.67Z"/>
        <path class="cls-2" d="m453.03,70.88V25.38h9.45l11.75,19.51c3.04,5.06,5.67,10.33,7.77,15.25h.13c-.54-6.07-.74-11.95-.74-18.9v-15.87h7.7v45.5h-8.57l-11.88-19.98c-2.9-5-5.94-10.6-8.17-15.73l-.2.07c.34,5.88.41,11.88.41,19.38v16.27h-7.63Z"/>
        <path class="cls-2" d="m535.14,68.79c-2.9,1.08-8.57,2.57-14.65,2.57-7.7,0-13.5-1.96-17.82-6.07-4.05-3.85-6.41-9.86-6.35-16.74,0-14.38,10.26-23.63,25.32-23.63,5.6,0,9.99,1.15,12.08,2.16l-1.82,6.68c-2.5-1.08-5.54-1.96-10.33-1.96-9.72,0-16.54,5.74-16.54,16.34s6.35,16.47,15.8,16.47c2.97,0,5.2-.41,6.28-.95v-11.34h-8.03v-6.55h16.07v23.02Z"/>
        <path class="cls-2" d="m569.12,50.7h-17.14v13.37h19.17v6.82h-27.47V25.38h26.46v6.82h-18.16v11.75h17.14v6.75Z"/>
        <path class="cls-2" d="m578.46,25.99c3.11-.54,7.76-.95,12.55-.95,6.55,0,11,1.08,14.04,3.64,2.5,2.09,3.91,5.27,3.91,9.11,0,5.88-3.99,9.86-8.23,11.41v.2c3.24,1.21,5.19,4.39,6.34,8.77,1.42,5.67,2.63,10.94,3.58,12.69h-8.57c-.67-1.35-1.75-5.06-3.03-10.73-1.29-5.94-3.45-7.83-8.17-7.96h-4.19v18.7h-8.23V25.99Zm8.23,20.12h4.93c5.6,0,9.11-2.97,9.11-7.49,0-5-3.51-7.29-8.91-7.29-2.63,0-4.32.2-5.13.41v14.38Z"/>
      </g>
      <g>
        <path class="cls-2" d="m709.23,61.84c2.7,1.56,6.75,2.9,11,2.9,5.33,0,8.31-2.5,8.31-6.21,0-3.45-2.3-5.47-8.1-7.56-7.49-2.7-12.29-6.68-12.29-13.23,0-7.43,6.21-13.1,16.07-13.1,4.93,0,8.57,1.08,10.93,2.3l-2.02,6.68c-1.62-.88-4.79-2.16-9.05-2.16-5.27,0-7.56,2.84-7.56,5.47,0,3.51,2.63,5.13,8.71,7.49,7.9,2.97,11.75,6.95,11.75,13.5,0,7.29-5.54,13.64-17.28,13.64-4.79,0-9.79-1.35-12.29-2.84l1.82-6.89Z"/>
        <path class="cls-2" d="m752.79,25.38v45.5h-8.31V25.38h8.31Z"/>
        <path class="cls-2" d="m762.31,70.88V25.38h9.45l11.75,19.51c3.04,5.06,5.67,10.33,7.77,15.25h.13c-.54-6.07-.74-11.95-.74-18.9v-15.87h7.7v45.5h-8.57l-11.88-19.98c-2.9-5-5.94-10.6-8.17-15.73l-.2.07c.34,5.88.41,11.88.41,19.38v16.27h-7.63Z"/>
        <path class="cls-2" d="m831.07,57.99l-3.91,12.9h-8.57l14.58-45.5h10.6l14.78,45.5h-8.91l-4.12-12.9h-14.45Zm13.03-6.28l-3.58-11.21c-.87-2.76-1.62-5.87-2.29-8.5h-.14c-.68,2.63-1.35,5.8-2.16,8.5l-3.51,11.21h11.67Z"/>
        <path class="cls-2" d="m873.22,25.38v18.23h19.24v-18.23h8.3v45.5h-8.3v-20.05h-19.24v20.05h-8.31V25.38h8.31Z"/>
        <path class="cls-2" d="m935.75,50.7h-17.14v13.37h19.17v6.82h-27.47V25.38h26.46v6.82h-18.16v11.75h17.14v6.75Z"/>
        <path class="cls-2" d="m954.2,57.99l-3.91,12.9h-8.57l14.58-45.5h10.6l14.78,45.5h-8.91l-4.12-12.9h-14.45Zm13.03-6.28l-3.58-11.21c-.87-2.76-1.62-5.87-2.29-8.5h-.14c-.68,2.63-1.35,5.8-2.16,8.5l-3.51,11.21h11.67Z"/>
        <path class="cls-2" d="m988.04,25.99c3.64-.61,8.31-.95,13.23-.95,8.51,0,14.38,1.75,18.56,5.27,4.39,3.58,7.09,8.98,7.09,16.74s-2.77,14.18-7.09,18.09c-4.52,4.12-11.75,6.21-20.59,6.21-4.86,0-8.51-.27-11.21-.61V25.99Zm8.31,38.55c1.14.2,2.9.2,4.59.2,10.8.07,17.21-5.87,17.21-17.41.07-10.06-5.74-15.8-16.13-15.8-2.63,0-4.52.2-5.67.47v32.54Z"/>
      </g>
      <rect class="cls-2" x="646.28" y="42.46" width="16.89" height="16.89"/>
    </g>
  </g>
</svg>