<?xml version="1.0" encoding="UTF-8"?>
<svg id="Layer_2" data-name="Layer 2" xmlns="http://www.w3.org/2000/svg" viewBox="0 0 1000 75">
  <g id="Layer_1-2" data-name="Layer 1">
    <g>
      <path fill="#ff0000" d="m456.21,74.5l-6.71-6.71v-2.29H.5v-19h449v2.71l7.29,7.29h88.41l7.29-7.29v-2.71h397.47q.24,0,45.24-46h4.29v65h-449v2.29l-6.71,6.71h-87.59Z"/>
      <path d="m999,1v64h-449v2.59l-6.41,6.41h-87.17l-6.41-6.41v-2.59H1v-18h448v2.41l.29.29,7,7,.29.29h88.83l.29-.29,7-7,.29-.29v-2.41h396.97q.42,0,2.66-2.28l5.1-5.21c4.22-4.31,9.85-10.06,15.48-15.81l22.21-22.7h3.58m1-1h-5s-45,46-45.03,46h-397.97v3c-2.73,2.73-4.27,4.27-7,7h-88c-2.73-2.73-4.27-4.27-7-7v-3H0v20h449v2c2.73,2.73,4.27,4.27,7,7h88c2.73-2.73,4.27-4.27,7-7v-2h449V0h0Z"/>
    </g>
  </g>
</svg>